<svg width="18" height="18" viewBox="0 0 18 18" fill="none" xmlns="http://www.w3.org/2000/svg">
<path opacity="0.4" d="M2.75 7.5C3.164 7.5 3.5 7.164 3.5 6.75V4.75C3.5 4.061 4.061 3.5 4.75 3.5H6.75C7.164 3.5 7.5 3.164 7.5 2.75C7.5 2.336 7.164 2 6.75 2H4.75C3.233 2 2 3.233 2 4.75V6.75C2 7.164 2.336 7.5 2.75 7.5Z" fill="#F747B3"/>
<path opacity="0.4" d="M13.25 2H11.25C10.836 2 10.5 2.336 10.5 2.75C10.5 3.164 10.836 3.5 11.25 3.5H13.25C13.939 3.5 14.5 4.061 14.5 4.75V6.75C14.5 7.164 14.836 7.5 15.25 7.5C15.664 7.5 16 7.164 16 6.75V4.75C16 3.233 14.767 2 13.25 2Z" fill="#F747B3"/>
<path opacity="0.4" d="M15.25 10.5C14.836 10.5 14.5 10.836 14.5 11.25V13.25C14.5 13.939 13.939 14.5 13.25 14.5H11.25C10.836 14.5 10.5 14.836 10.5 15.25C10.5 15.664 10.836 16 11.25 16H13.25C14.767 16 16 14.767 16 13.25V11.25C16 10.836 15.664 10.5 15.25 10.5Z" fill="#F747B3"/>
<path opacity="0.4" d="M6.75 14.5H4.75C4.061 14.5 3.5 13.939 3.5 13.25V11.25C3.5 10.836 3.164 10.5 2.75 10.5C2.336 10.5 2 10.836 2 11.25V13.25C2 14.767 3.233 16 4.75 16H6.75C7.164 16 7.5 15.664 7.5 15.25C7.5 14.836 7.164 14.5 6.75 14.5Z" fill="#F747B3"/>
<path d="M12.2798 8.96997C11.9868 8.67697 11.5118 8.67697 11.2188 8.96997L9.74879 10.4399V5.25C9.74879 4.836 9.41279 4.5 8.99879 4.5C8.58479 4.5 8.24879 4.836 8.24879 5.25V10.439L6.7788 8.96899C6.4858 8.67599 6.0108 8.67599 5.7178 8.96899C5.4248 9.26199 5.4248 9.73703 5.7178 10.03L8.4678 12.78C8.6138 12.926 8.80579 13 8.99779 13C9.18979 13 9.38179 12.927 9.52779 12.78L12.2778 10.03C12.5708 9.73703 12.5708 9.26199 12.2778 8.96899L12.2798 8.96997Z" fill="#F747B3"/>
</svg>
