<svg width="40" height="38" viewBox="0 0 40 38" fill="none" xmlns="http://www.w3.org/2000/svg">
<path d="M39.406 25.9477V27.3283L39.387 28.5C39.3753 29.3469 39.2991 30.1917 39.159 31.027C38.9524 32.294 38.4471 33.4935 37.685 34.5266C36.9229 35.5596 35.9259 36.3963 34.7763 36.9677C34.0115 37.3518 33.1941 37.6207 32.3507 37.7657C31.502 37.9113 30.6407 37.962 29.792 37.9873C28.1453 38.0063 27.683 38.0063 27.2143 38.0063H12.1917C10.4057 38.0063 10.013 38 9.62033 37.9873C8.76533 37.962 7.904 37.9113 7.06167 37.7657C6.21386 37.6219 5.39211 37.3529 4.62333 36.9677C3.4794 36.3888 2.48775 35.5488 1.72859 34.5157C0.969421 33.4826 0.464047 32.2853 0.253333 31.0207C0.112948 30.1833 0.0367262 29.3363 0.0253333 28.4873C0.0167521 28.1011 0.0125296 27.7147 0.0126667 27.3283L0 25.9477V12.0523V10.6717L0.019 9.50633C0.0443333 8.664 0.095 7.81533 0.247 6.973C0.453416 5.70761 0.957945 4.50949 1.71891 3.47762C2.47987 2.44575 3.47543 1.60975 4.62333 1.03867C5.39048 0.656178 6.21003 0.389395 7.05533 0.247C7.89767 0.101333 8.759 0.0506667 9.614 0.0253333C11.2607 0 11.7293 0 12.1917 0H26.8343H21.166H27.2143C29.0067 0 29.3993 0.00633333 29.792 0.019C30.6407 0.0443333 31.502 0.095 32.3507 0.240667C33.2057 0.392667 34.0037 0.646 34.7827 1.03867C35.9273 1.61575 36.92 2.45428 37.6803 3.48636C38.4406 4.51844 38.9472 5.71506 39.159 6.97933C39.311 7.81533 39.3617 8.664 39.387 9.51267C39.3997 9.89267 39.3997 10.2853 39.406 10.6717V25.9477Z" fill="black"/>
<mask id="mask0_108_7416" style="mask-type:luminance" maskUnits="userSpaceOnUse" x="0" y="0" width="40" height="39">
<path d="M39.406 25.9477V27.3283L39.387 28.5C39.3753 29.3469 39.2991 30.1917 39.159 31.027C38.9524 32.294 38.4471 33.4935 37.685 34.5266C36.9229 35.5596 35.9259 36.3963 34.7763 36.9677C34.0115 37.3518 33.1941 37.6207 32.3507 37.7657C31.502 37.9113 30.6407 37.962 29.792 37.9873C28.1453 38.0063 27.683 38.0063 27.2143 38.0063H12.1917C10.4057 38.0063 10.013 38 9.62033 37.9873C8.76533 37.962 7.904 37.9113 7.06167 37.7657C6.21386 37.6219 5.39211 37.3529 4.62333 36.9677C3.4794 36.3888 2.48775 35.5488 1.72859 34.5157C0.969421 33.4826 0.464047 32.2853 0.253333 31.0207C0.112948 30.1833 0.0367262 29.3363 0.0253333 28.4873C0.0167521 28.1011 0.0125296 27.7147 0.0126667 27.3283L0 25.9477V12.0523V10.6717L0.019 9.50633C0.0443333 8.664 0.095 7.81533 0.247 6.973C0.453416 5.70761 0.957945 4.50949 1.71891 3.47762C2.47987 2.44575 3.47543 1.60975 4.62333 1.03867C5.39048 0.656178 6.21003 0.389395 7.05533 0.247C7.89767 0.101333 8.759 0.0506667 9.614 0.0253333C11.2607 0 11.7293 0 12.1917 0H26.8343H21.166H27.2143C29.0067 0 29.3993 0.00633333 29.792 0.019C30.6407 0.0443333 31.502 0.095 32.3507 0.240667C33.2057 0.392667 34.0037 0.646 34.7827 1.03867C35.9273 1.61575 36.92 2.45428 37.6803 3.48636C38.4406 4.51844 38.9472 5.71506 39.159 6.97933C39.311 7.81533 39.3617 8.664 39.387 9.51267C39.3997 9.89267 39.3997 10.2853 39.406 10.6717V25.9477Z" fill="white"/>
</mask>
<g mask="url(#mask0_108_7416)">
<path d="M38.3609 33.4335L36.3912 32.4202L38.3545 33.4335H38.3609ZM36.8535 35.4792L38.4115 37.0625L36.8599 35.4665L36.8535 35.4792ZM32.3505 37.7655L31.9642 35.5805L32.3442 37.7655H32.3505ZM29.7919 37.9872L29.8172 40.2039H29.8489L29.7855 37.9872H29.7919ZM12.1915 37.9999L12.1852 40.2165H12.1915V37.9999ZM2.5522 35.4729L0.994203 37.0562L2.5522 35.4665V35.4729ZM0.025203 28.4872L2.24187 28.4302L0.025203 28.4935V28.4872ZM0.0125365 10.6715L2.2292 10.6905V10.6842L-0.000130177 10.6715H0.0125365ZM0.253203 6.97287L-1.9318 6.5802L0.253203 6.9792V6.97287ZM2.55854 2.52687L4.11654 4.10387L2.55854 2.52054V2.52687ZM9.6202 0.0188696L9.59487 -2.1978H9.55687L9.6202 0.0188696ZM26.8342 -0.000130177V2.21654V-2.2168V-0.000130177ZM21.1659 -0.000130177V-2.2168V2.21654V-0.000130177ZM27.2142 -0.000130177L27.2205 -2.2168V-0.000130177H27.2142ZM32.3505 0.240536L31.9642 2.42554L32.3442 0.240536H32.3505ZM36.8535 2.52687L35.2955 4.09754L36.8599 2.5332L36.8535 2.52687ZM38.3609 4.57254L36.3912 5.58587L38.3545 4.57254H38.3609ZM39.3869 9.51254L37.1702 9.56954L39.3869 9.5062V9.51254ZM37.1892 25.9475V27.3155L41.6225 27.3409V25.9475H37.1892ZM37.1892 27.3155C37.1892 27.6955 37.1829 28.0629 37.1702 28.4302L41.6035 28.5569L41.6225 27.3409L37.1892 27.3155ZM37.1702 28.4302C37.1512 29.2345 37.1069 29.9565 36.9802 30.6215L41.3439 31.4195C41.5275 30.4189 41.5782 29.4309 41.5972 28.5505L37.1702 28.4302ZM36.9802 30.6279C36.8753 31.2496 36.6768 31.8518 36.3912 32.4139L40.3305 34.4405C40.8372 33.4525 41.1539 32.4519 41.3439 31.4195L36.9802 30.6279ZM36.3912 32.4139C36.1068 32.9647 35.737 33.467 35.2955 33.9022L38.4115 37.0499C39.1842 36.2899 39.8365 35.4032 40.3305 34.4405L36.3912 32.4139ZM35.2955 33.9022C34.8522 34.3392 34.3455 34.7065 33.7882 34.9789L35.7769 38.9435C36.7488 38.4541 37.6378 37.8151 38.4115 37.0499L35.2955 33.9022ZM33.7819 34.9789C33.2245 35.2702 32.6355 35.4539 31.9642 35.5742L32.7369 39.9442C33.7939 39.7621 34.8183 39.4249 35.7769 38.9435L33.7819 34.9852V34.9789ZM31.9642 35.5742C31.2802 35.7009 30.5455 35.7452 29.7285 35.7642L29.8489 40.1975C30.7355 40.1722 31.7299 40.1215 32.7369 39.9442L31.9642 35.5742ZM29.7602 35.7642C28.1262 35.7832 27.6702 35.7832 27.2142 35.7832V40.2165C27.6892 40.2165 28.1642 40.2165 29.8109 40.1975L29.7602 35.7642ZM27.2142 35.7832H17.5432V40.2165H27.2205V35.7832H27.2142ZM17.5369 35.7832H12.1915V40.2165H17.5369V35.7832ZM12.1979 35.7832C10.3992 35.7832 10.0382 35.7769 9.6772 35.7642L9.55687 40.1975C9.9812 40.2102 10.4055 40.2102 12.1852 40.2165L12.1979 35.7832ZM9.6772 35.7642C8.8602 35.7452 8.12554 35.7009 7.44787 35.5742L6.66887 39.9442C7.6822 40.1215 8.6702 40.1722 9.55687 40.1975L9.68354 35.7642H9.6772ZM7.44787 35.5742C6.81401 35.4695 6.19927 35.271 5.62387 34.9852L3.62887 38.9435C4.58776 39.4228 5.61213 39.7578 6.66887 39.9379L7.44787 35.5742ZM5.62387 34.9852C5.06566 34.7058 4.55486 34.3403 4.1102 33.9022L0.994203 37.0499C1.76734 37.8175 2.65644 38.4586 3.62887 38.9499L5.62387 34.9852ZM4.1102 33.9022C3.66894 33.4668 3.29916 32.9645 3.01454 32.4139L-0.924797 34.4405C-0.426414 35.4059 0.221222 36.2865 0.994203 37.0499L4.1102 33.9022ZM3.02087 32.4139C2.73307 31.8499 2.53235 31.2456 2.42554 30.6215L-1.93813 31.4195C-1.74813 32.4519 -1.43146 33.4525 -0.924797 34.4405L3.02087 32.4139ZM2.42554 30.6215C2.3052 29.9565 2.26087 29.2409 2.23554 28.4302L-2.1978 28.5569C-2.17246 29.4309 -2.11546 30.4189 -1.93813 31.4195L2.43187 30.6215H2.42554ZM2.23554 28.4302L2.22287 27.3155L-2.21046 27.3409C-2.21046 27.7399 -2.21046 28.1452 -2.1978 28.5505L2.23554 28.4239V28.4302ZM2.22287 27.3092L2.21654 25.9475H-2.2168V27.3409L2.21654 27.3092H2.22287ZM2.21654 25.9475V21.3685H-2.2168V25.9475H2.21654ZM2.21654 21.3685V16.6312H-2.2168V21.3685H2.21654ZM2.21654 16.6312V12.0522H-2.2168V16.6312H2.21654ZM2.21654 12.0522V10.6905L-2.2168 10.6525V12.0522H2.21654ZM2.21654 10.6842C2.21654 10.3042 2.2292 9.93687 2.23554 9.56954L-2.1978 9.44287L-2.21046 10.6589L2.22287 10.6842H2.21654ZM2.23554 9.56954C2.26087 8.75887 2.3052 8.0432 2.42554 7.37187L-1.93813 6.5802C-2.09565 7.52867 -2.18034 8.48781 -2.19146 9.4492L2.24187 9.56954H2.23554ZM2.42554 7.3782C2.53235 6.75413 2.73307 6.14983 3.02087 5.58587L-0.924797 3.5592C-1.43146 4.5472 -1.74813 5.54787 -1.93813 6.5802L2.43187 7.3782H2.42554ZM3.02087 5.58587C3.30377 5.03765 3.67141 4.5375 4.1102 4.10387L0.994203 0.943536C0.220359 1.70856 -0.427343 2.5914 -0.924797 3.5592L3.02087 5.58587ZM4.1102 4.09754C4.55354 3.66054 5.0602 3.29954 5.62387 3.02087L3.62887 -0.95013C2.65627 -0.459164 1.76714 0.182038 0.994203 0.94987L4.1102 4.09754ZM5.62387 3.02087C6.18754 2.72954 6.7702 2.54587 7.44787 2.42554L6.66887 -1.94446C5.6302 -1.75446 4.6232 -1.44413 3.62887 -0.943797L5.62387 3.01454V3.02087ZM7.44787 2.42554C8.12554 2.29887 8.8602 2.25454 9.6772 2.23554L9.55687 -2.1978C8.6702 -2.17246 7.67587 -2.1218 6.66887 -1.94446L7.44787 2.42554ZM9.64554 2.23554C11.2795 2.21654 11.7355 2.21654 12.1915 2.21654V-2.2168C11.7165 -2.2168 11.2415 -2.2168 9.59487 -2.1978L9.64554 2.23554ZM12.1915 2.21654H17.5369V-2.2168H12.1915V2.21654ZM17.5369 2.21654H26.8342V-2.2168H17.5432V2.21654H17.5369ZM26.8342 -2.2168H21.1659V2.21654H26.8342V-2.2168ZM21.1659 2.21654H27.2142V-2.2168H21.1659V2.21654ZM27.2079 2.21654C29.0065 2.21654 29.3675 2.22287 29.7285 2.23554L29.8552 -2.1978C29.4245 -2.21046 29.0002 -2.21046 27.2205 -2.2168L27.2079 2.21654ZM29.7285 2.23554C30.5519 2.25454 31.2802 2.29887 31.9642 2.42554L32.7369 -1.94446C31.7819 -2.10073 30.8165 -2.18541 29.8489 -2.1978L29.7285 2.23554ZM31.9642 2.42554C32.6355 2.54587 33.2245 2.72954 33.7819 3.01454L35.7769 -0.943797C34.818 -1.42301 33.7936 -1.75807 32.7369 -1.93813L31.9642 2.42554ZM33.7882 3.01454C34.3442 3.29442 34.8529 3.65987 35.2955 4.09754L38.4115 0.94987C37.6385 0.182199 36.7494 -0.458983 35.7769 -0.95013L33.7882 3.01454ZM35.2955 4.10387C35.7389 4.53454 36.1062 5.0412 36.3912 5.58587L40.3305 3.5592C39.8334 2.59123 39.1856 1.70835 38.4115 0.943536L35.2955 4.10387ZM36.3912 5.58587C36.6762 6.13687 36.8599 6.7132 36.9802 7.37187L41.3439 6.5802C41.1539 5.54787 40.8372 4.5472 40.3305 3.5592L36.3912 5.58587ZM36.9802 7.37187C37.1069 8.0432 37.1512 8.7652 37.1702 9.56954L41.6035 9.44287C41.5782 8.56887 41.5275 7.58087 41.3439 6.5802L36.9802 7.37187ZM37.1702 9.56954C37.1829 9.93687 37.1829 10.3042 37.1892 10.6842L41.6225 10.6589L41.6035 9.4492L37.1702 9.57587V9.56954ZM37.1892 10.6842V12.0522H41.6225V10.6589L37.1892 10.6842ZM37.1892 12.0522V16.6312H41.6225V12.0522H37.1892ZM37.1892 16.6312V21.3685H41.6225V16.6312H37.1892ZM37.1892 21.3685V25.9475H41.6225V21.3685H37.1892Z" fill="url(#paint0_linear_108_7416)"/>
</g>
<path fill-rule="evenodd" clip-rule="evenodd" d="M15.5046 16.3591C15.5046 16.1881 15.6439 16.0424 15.8212 16.0424H21.6479C21.8252 16.0424 21.9646 16.1881 21.9646 16.3591V16.9924C21.9646 17.0764 21.9312 17.157 21.8718 17.2164C21.8124 17.2757 21.7319 17.3091 21.6479 17.3091H15.8212C15.7373 17.3091 15.6567 17.2757 15.5973 17.2164C15.5379 17.157 15.5046 17.0764 15.5046 16.9924V16.3591ZM13.3322 12.7871C13.355 12.7662 13.3723 12.7401 13.3827 12.7111C13.3931 12.682 13.3962 12.6508 13.3919 12.6203C13.3875 12.5897 13.3758 12.5607 13.3576 12.5357C13.3395 12.5107 13.3156 12.4904 13.2879 12.4768L11.0269 11.2734C10.9847 11.2516 10.9523 11.2149 10.9358 11.1703C10.9194 11.1258 10.9203 11.0767 10.9382 11.0328L12.4962 7.15677C12.5659 6.9731 12.3379 6.81477 12.1922 6.94777L7.28391 11.3811C7.26135 11.4002 7.24357 11.4244 7.23198 11.4516C7.2204 11.4788 7.21532 11.5083 7.21717 11.5379C7.21901 11.5674 7.22773 11.5961 7.24261 11.6216C7.2575 11.6472 7.27815 11.6689 7.30291 11.6851L9.48158 13.1608C9.51747 13.1851 9.54395 13.221 9.55662 13.2625C9.5693 13.304 9.5674 13.3485 9.55125 13.3888L8.13258 17.0051C8.05658 17.1951 8.28458 17.3471 8.43658 17.2141L13.3322 12.7808V12.7871Z" fill="white"/>
<defs>
<linearGradient id="paint0_linear_108_7416" x1="20.4059" y1="-0.000130039" x2="20.4059" y2="40.1089" gradientUnits="userSpaceOnUse">
<stop stop-color="#F743B6"/>
<stop offset="1" stop-color="#FCC043"/>
</linearGradient>
</defs>
</svg>
