<svg width="17" height="16" viewBox="0 0 17 16" fill="none" xmlns="http://www.w3.org/2000/svg">
<path d="M13.9692 13.3933C13.9042 13.3183 13.8112 13.2463 13.6932 13.1733C13.6752 13.1633 13.6262 13.1333 13.5462 13.0893C13.4662 13.0443 13.4032 13.0053 13.3542 12.9723C13.3062 12.9403 13.2442 12.8823 13.1662 12.8023C13.0892 12.7223 13.0262 12.6383 12.9832 12.5483C12.9392 12.4583 12.8952 12.3383 12.8532 12.1863C12.8132 12.0343 12.7892 11.8663 12.7832 11.6823C12.6992 11.7543 12.6532 11.8943 12.6432 12.1063C12.6332 12.3163 12.6802 12.5323 12.7782 12.7533C12.8742 12.9733 13.0212 13.1153 13.2182 13.1833C13.4102 13.2473 13.5622 13.3183 13.6782 13.3913C13.7952 13.4663 13.8702 13.5493 13.9032 13.6463C13.9362 13.7403 13.8802 13.8433 13.7382 13.9543C13.5942 14.0643 13.3662 14.1743 13.0512 14.2813C12.6172 14.4293 12.3082 14.5573 12.1272 14.6613C11.9442 14.7643 11.6772 14.9613 11.3272 15.2543C11.0892 15.4503 10.8372 15.5563 10.5672 15.5713C10.3002 15.5853 10.0832 15.4873 9.91718 15.2773C9.75018 15.0653 9.69718 14.7653 9.75718 14.3773C9.86918 13.6333 9.86718 13.0543 9.74918 12.6373C9.65418 12.3113 9.63318 12.0223 9.68718 11.7723C9.74018 11.5223 9.82418 11.3773 9.93718 11.3353C10.0492 11.2923 10.1712 11.3823 10.3022 11.6023C10.3122 11.6323 10.3422 11.6903 10.3822 11.7773C10.4242 11.8643 10.4572 11.9243 10.4852 11.9603C10.5112 11.9963 10.5522 12.0403 10.6052 12.1003C10.6602 12.1563 10.7272 12.1953 10.8072 12.2203C10.8872 12.2443 10.9812 12.2603 11.0872 12.2643C11.2902 12.2703 11.4712 12.2283 11.6332 12.1383C11.7932 12.0483 11.9132 11.9483 11.9932 11.8403C12.0732 11.7303 12.1532 11.6253 12.2352 11.5233C12.3152 11.4233 12.3852 11.3653 12.4452 11.3533C12.5112 11.3433 12.5712 11.2773 12.6252 11.1583C12.6782 11.0383 12.7132 10.8743 12.7312 10.6633C12.7492 10.4533 12.7352 10.1993 12.6872 9.9093C12.5972 9.3923 12.4212 8.8243 12.1572 8.2033C11.8922 7.5853 11.5952 7.1003 11.2692 6.7493C10.6792 6.1233 10.2842 5.4753 10.0822 4.8033C9.87418 4.0933 9.78418 3.4573 9.81418 2.8933C9.84418 2.4883 9.75418 2.0483 9.55118 1.5753C9.34718 1.1013 9.07318 0.741302 8.73518 0.491302C8.52118 0.331302 8.25518 0.207302 7.94018 0.121302C7.62418 0.034302 7.31018 -0.00469799 6.99318 -0.000697994C6.60618 -0.000697994 6.29618 0.061302 6.06318 0.187302C5.58718 0.443302 5.27318 0.754302 5.11718 1.1193C4.96218 1.4853 4.89018 1.9363 4.90318 2.4713C4.92718 3.6513 4.97518 4.5713 5.04718 5.2393C4.96318 5.5493 4.59418 6.1293 3.94018 6.9793C3.82018 7.0993 3.70418 7.2593 3.59218 7.4613C3.47918 7.6633 3.38918 7.8443 3.32418 8.0063C3.25918 8.1663 3.17118 8.3993 3.06118 8.7013C2.95118 9.0053 2.87118 9.2193 2.82418 9.3453C2.78218 9.4523 2.71718 9.5773 2.62918 9.7203C2.53918 9.8633 2.46718 10.0043 2.41518 10.1403C2.36118 10.2783 2.33118 10.4333 2.32518 10.6043C2.31818 10.7343 2.32518 10.8483 2.34318 10.9443C2.36718 11.0883 2.41118 11.1323 2.47718 11.0783C2.74418 10.8763 3.08118 10.9953 3.48718 11.4363C3.77118 11.7463 4.27418 12.4663 4.99418 13.5963C5.05418 13.6963 5.11418 13.8043 5.17218 13.9223C5.23218 14.0383 5.28818 14.1923 5.34218 14.3863C5.39618 14.5803 5.41918 14.7533 5.40918 14.9083C5.39918 15.0633 5.33218 15.2053 5.20318 15.3363C5.07618 15.4663 4.88318 15.5503 4.62718 15.5863C4.49018 15.6043 4.32518 15.5923 4.13118 15.5503C3.93818 15.5073 3.69118 15.4403 3.39418 15.3443C3.09718 15.2493 2.87718 15.1843 2.73418 15.1483C2.52418 15.1013 2.22918 15.0403 1.84418 14.9653C1.46118 14.8903 1.21018 14.8353 1.09118 14.8003C0.888179 14.7473 0.779179 14.6703 0.761179 14.5703C0.743179 14.4853 0.785179 14.3423 0.887179 14.1403C0.987179 13.9383 1.03718 13.7933 1.03718 13.7033C1.04518 13.6383 1.04218 13.5733 1.03018 13.5073C1.02018 13.4423 1.00618 13.3913 0.990179 13.3573C0.975179 13.3203 0.950179 13.2673 0.913179 13.1973C0.877179 13.1243 0.853179 13.0703 0.841179 13.0373C0.733179 12.7873 0.718179 12.6173 0.797179 12.5273C0.851179 12.4493 0.977179 12.4173 1.18018 12.4373C1.48418 12.4673 1.73018 12.4223 1.92218 12.3023C2.23718 12.1073 2.33218 11.7903 2.20718 11.3563C2.20718 11.5583 2.17118 11.7103 2.10018 11.8113C2.02818 11.9133 1.90418 12.0183 1.72418 12.1243C1.62418 12.1843 1.44418 12.2193 1.18918 12.2323C0.932179 12.2443 0.762179 12.2863 0.679179 12.3583C0.619179 12.4123 0.589179 12.4923 0.586179 12.6003C0.582179 12.7083 0.596179 12.8153 0.626179 12.9263C0.656179 13.0363 0.686179 13.1633 0.716179 13.3063C0.746179 13.4493 0.758179 13.5683 0.752179 13.6633C0.745179 13.7293 0.692179 13.8913 0.592179 14.1503C0.490179 14.4103 0.469179 14.6073 0.530179 14.7453C0.560179 14.8103 0.610179 14.8693 0.680179 14.9193C0.753179 14.9693 0.853179 15.0123 0.980179 15.0493C1.10818 15.0843 1.22518 15.1123 1.33318 15.1333C1.44118 15.1533 1.58918 15.1813 1.77918 15.2133C1.96918 15.2463 2.12118 15.2733 2.23418 15.2983C2.61418 15.3753 3.04918 15.5043 3.53718 15.6823C4.02718 15.8593 4.35718 15.9523 4.52918 15.9573C4.69618 15.9633 4.85618 15.9293 5.00718 15.8543C5.15918 15.7793 5.28718 15.6943 5.39718 15.5993C5.50418 15.5043 5.66218 15.4153 5.87418 15.3313C6.08418 15.2473 6.32218 15.2033 6.58418 15.1973C6.70418 15.1903 6.87718 15.1833 7.10218 15.1743C7.32918 15.1643 7.49718 15.1613 7.61218 15.1613C8.12418 15.1613 8.50918 15.1643 8.77218 15.1693C8.95018 15.1753 9.09218 15.2033 9.19218 15.2543C9.29218 15.3043 9.35818 15.3643 9.38818 15.4283C9.41818 15.4943 9.46818 15.5703 9.53618 15.6553C9.60418 15.7423 9.69218 15.8123 9.79918 15.8653C10.0252 15.9723 10.2912 16.0153 10.5952 15.9933C10.8982 15.9733 11.1012 15.9153 11.2022 15.8193C11.3692 15.6593 11.5942 15.4693 11.8762 15.2473C12.1592 15.0273 12.4132 14.8603 12.6402 14.7473L12.8832 14.6323C12.9962 14.5793 13.0932 14.5323 13.1692 14.4943C13.2442 14.4543 13.3392 14.4063 13.4492 14.3473C13.5592 14.2873 13.6492 14.2333 13.7162 14.1823C13.7862 14.1323 13.8562 14.0743 13.9262 14.0073C13.9962 13.9423 14.0432 13.8773 14.0642 13.8113C14.0842 13.7453 14.0922 13.6783 14.0872 13.6113C14.0712 13.5393 14.0352 13.4683 13.9692 13.3943V13.3933ZM9.18418 4.7633C9.20218 4.7513 9.21418 4.7473 9.22018 4.7503C9.22718 4.7533 9.24018 4.7643 9.25718 4.7863L9.30718 4.8443L9.36718 4.9163C9.39418 4.9463 9.42318 4.9703 9.45318 4.9883C9.48918 5.0133 9.53118 5.0283 9.58318 5.0383C9.63318 5.0453 9.67318 5.0623 9.69818 5.0813C9.72418 5.1033 9.74318 5.1383 9.75618 5.1853C9.76818 5.2503 9.75818 5.3113 9.72618 5.3633C9.69318 5.4173 9.64918 5.4403 9.59618 5.4353C9.48918 5.4103 9.37318 5.3173 9.24918 5.1553C9.12218 4.9893 9.10118 4.8603 9.18418 4.7653V4.7633ZM8.07718 1.2953C8.10718 1.2553 8.12418 1.2253 8.13118 1.2023C8.14118 1.1663 8.14418 1.1293 8.13618 1.0923C8.12618 1.0523 8.12918 1.0143 8.14418 0.975302C8.15918 0.935302 8.19418 0.915302 8.24718 0.908302C8.30118 0.908302 8.37318 0.952302 8.46118 1.0423C8.47918 1.0523 8.50618 1.0723 8.54618 1.0963C8.58618 1.1203 8.61118 1.1403 8.62618 1.1583C8.64018 1.1763 8.64918 1.1913 8.64918 1.2023C8.63718 1.2323 8.60918 1.2523 8.56918 1.2643C8.52918 1.2763 8.48218 1.2823 8.43518 1.2823C8.38718 1.2823 8.36018 1.2853 8.35518 1.2903C8.30718 1.3083 8.26218 1.3343 8.22118 1.3703C8.18118 1.4063 8.14618 1.4323 8.12318 1.4503C8.09818 1.4683 8.07518 1.4683 8.05118 1.4503C8.02618 1.4143 8.01818 1.3903 8.02518 1.3753C8.03018 1.3603 8.04818 1.3353 8.07718 1.2953ZM3.75518 7.9783C3.79518 7.9303 3.82718 7.8913 3.84518 7.8623C3.86318 7.8323 3.88018 7.7923 3.89518 7.7423C3.90918 7.6903 3.92218 7.6523 3.93518 7.6303C3.94518 7.6053 3.96518 7.5973 3.98918 7.6043C3.99918 7.6003 4.00918 7.6073 4.01518 7.6223C4.02218 7.6363 4.02318 7.6443 4.02318 7.6443V7.6713C4.02318 7.6813 4.02318 7.6933 4.01818 7.7083L4.00418 7.7483C3.99818 7.7603 3.99418 7.7783 3.98618 7.8023C3.98018 7.8283 3.97618 7.8473 3.96818 7.8653C3.94418 7.9253 3.90818 7.9783 3.85818 8.0253C3.80818 8.0733 3.76818 8.0953 3.74618 8.0873C3.71018 8.0743 3.71418 8.0373 3.75418 7.9803L3.75518 7.9783ZM9.59518 13.4863C9.58518 13.6763 9.54318 13.9463 9.47518 14.2893C9.40518 14.6333 9.36518 14.8633 9.34518 14.9763C9.22018 14.9693 9.15018 14.9233 9.13218 14.8363C9.11418 14.7503 9.13218 14.6393 9.18618 14.5023C9.31618 14.1043 9.38618 13.8303 9.39118 13.6823C9.40318 13.4073 9.37318 13.2523 9.30118 13.2173C9.23618 13.1703 9.13518 13.2603 8.99818 13.4853C8.73418 13.9153 8.20818 14.1723 7.41818 14.2623C6.70318 14.3573 6.20818 14.2523 5.93418 13.9423C5.87418 13.8983 5.81418 13.8923 5.75618 13.9183C5.69618 13.9433 5.65818 13.9723 5.64018 14.0023C5.63418 14.0123 5.64018 14.0323 5.65818 14.0563L5.74318 14.1633C5.78318 14.2113 5.81318 14.2583 5.83618 14.3073C6.06818 14.7113 6.04618 14.9853 5.77418 15.1273C5.77418 14.8533 5.75418 14.6443 5.71218 14.4993C5.67018 14.3533 5.58618 14.1923 5.46218 14.0173C5.33718 13.8413 5.25218 13.7073 5.20218 13.6203C5.38218 13.6023 5.51618 13.5343 5.60918 13.4153C5.70318 13.2953 5.74418 13.1683 5.73618 13.0313C5.72618 12.8943 5.67618 12.7813 5.57918 12.6913C5.52518 12.6373 5.24918 12.4113 4.74918 12.0093C4.24918 11.6073 3.93918 11.3393 3.81918 11.2013C3.79518 11.1763 3.72418 11.1173 3.60518 11.0233C3.48518 10.9283 3.41118 10.8453 3.38218 10.7733C3.10718 10.1733 3.07818 9.6773 3.29218 9.2903L3.32818 9.2463C3.35618 9.2393 3.35818 9.2933 3.33518 9.4063C3.29918 9.5723 3.28818 9.7383 3.29918 9.9063C3.32418 10.2803 3.43118 10.5603 3.62218 10.7443C3.74718 10.8703 3.83218 10.8603 3.88218 10.7183C3.91718 10.6713 3.93218 10.4943 3.93018 10.1913C3.92818 9.8873 3.93318 9.6813 3.94418 9.5753C3.99218 9.2353 4.13418 8.8153 4.36918 8.3153C4.60318 7.8153 4.78918 7.5483 4.92618 7.5123C4.81818 7.3393 4.78418 7.1523 4.82318 6.9493C4.86318 6.7463 4.92318 6.5733 5.01118 6.4313C5.09818 6.2893 5.18618 6.1233 5.27418 5.9373C5.36418 5.7493 5.40818 5.5813 5.40818 5.4323C5.40818 5.3923 5.41018 5.3603 5.41818 5.3423C5.43418 5.2883 5.51018 5.3543 5.64018 5.5383C5.89018 5.9083 6.07818 6.1243 6.20318 6.1903C6.33318 6.2623 6.47918 6.2583 6.64118 6.1803C6.80118 6.1033 7.00118 5.9743 7.23518 5.7963C7.47018 5.6193 7.67118 5.4863 7.83818 5.4043C7.85618 5.3973 7.88318 5.3843 7.92318 5.3643C7.96318 5.3423 7.99118 5.3273 8.01318 5.3193C8.03318 5.3113 8.06018 5.2963 8.09318 5.2793L8.16818 5.2343C8.18518 5.2243 8.20318 5.2083 8.22118 5.1943C8.23918 5.1783 8.25118 5.1643 8.25718 5.1493C8.26318 5.1343 8.26718 5.1213 8.26718 5.1093C8.25518 5.0543 8.22918 5.0223 8.18918 5.0093C8.14918 4.9993 8.09918 5.0053 8.03318 5.0333C7.96718 5.0593 7.89318 5.0953 7.81318 5.1413C7.73318 5.1853 7.64318 5.2363 7.54618 5.2933C7.44618 5.3503 7.34818 5.4033 7.24618 5.4493C7.14618 5.4973 7.03618 5.5393 6.92618 5.5753C6.81218 5.6103 6.70418 5.6313 6.60318 5.6353C6.35318 5.6433 6.15318 5.5773 6.00618 5.4403C5.91118 5.3503 5.86018 5.2953 5.85418 5.2703C5.84718 5.2463 5.87418 5.2403 5.93418 5.2533C6.25418 5.2953 6.49018 5.3003 6.63918 5.2713C6.79418 5.2463 7.00118 5.1773 7.26418 5.0653C7.31818 5.0403 7.45418 4.9833 7.67118 4.8903C7.88818 4.8003 8.05618 4.7333 8.17518 4.6973C8.24518 4.6793 8.29518 4.6523 8.32118 4.6133C8.34718 4.5733 8.35718 4.5373 8.34718 4.5053C8.33918 4.4723 8.32018 4.4453 8.28918 4.4303C8.22318 4.3943 8.16318 4.4183 8.11118 4.5023C8.08118 4.5553 8.01818 4.6083 7.92318 4.6583C7.82818 4.7083 7.74018 4.7483 7.66018 4.7743C7.58018 4.7993 7.47718 4.8323 7.35018 4.8663C7.22618 4.9023 7.16018 4.9233 7.14618 4.9283C6.82018 5.0303 6.51618 5.0743 6.23618 5.0623C6.10618 5.0563 5.99918 5.0383 5.91918 5.0023C5.83918 4.9723 5.78318 4.9323 5.75418 4.8873C5.72418 4.8433 5.67718 4.7873 5.61018 4.7173C5.54518 4.6493 5.47018 4.5923 5.38718 4.5433C5.32918 4.5133 5.30718 4.4593 5.32118 4.3833C5.33618 4.3053 5.38118 4.2233 5.46118 4.1403C5.46618 4.1343 5.52718 4.0983 5.64118 4.0303C5.75818 3.9603 5.84118 3.8903 5.88718 3.8203C5.94118 3.7353 6.03318 3.6503 6.16318 3.5603C6.17018 3.5353 6.17318 3.4703 6.17618 3.3633C6.17918 3.2553 6.14918 3.1403 6.09018 3.0153C6.03218 2.8903 5.95018 2.8283 5.85018 2.8283C5.70518 2.8213 5.60618 2.8643 5.54518 2.9533C5.48518 3.0433 5.45818 3.1533 5.46518 3.2833C5.47118 3.3963 5.49818 3.4953 5.54918 3.5833C5.59918 3.6693 5.64518 3.7113 5.68918 3.7113C5.75318 3.7043 5.77418 3.7293 5.74918 3.7833C5.71418 3.8483 5.66718 3.8913 5.60618 3.9093C5.56618 3.9193 5.51918 3.8813 5.46818 3.7893C5.41818 3.6953 5.37818 3.5843 5.35218 3.4533C5.32618 3.3233 5.31518 3.2113 5.32218 3.1233C5.33218 2.9393 5.38218 2.7633 5.46818 2.5933C5.55518 2.4233 5.67818 2.3413 5.83818 2.3483C6.00618 2.3543 6.13818 2.4553 6.24118 2.6513C6.34118 2.8473 6.38918 3.1153 6.38418 3.4553C6.40218 3.4973 6.44818 3.5123 6.52418 3.4993C6.59818 3.4873 6.69618 3.4863 6.81718 3.4943C6.94018 3.5043 7.02718 3.5363 7.08118 3.5883C7.08718 3.5883 7.09118 3.5443 7.09118 3.4543C6.98318 2.7043 7.24918 2.3043 7.88618 2.2573C7.97918 2.2753 8.05918 2.2973 8.12618 2.3243C8.19218 2.3503 8.26218 2.3963 8.33618 2.4583C8.41218 2.5203 8.47418 2.6123 8.52618 2.7313C8.57618 2.8513 8.61618 2.9983 8.64618 3.1763V3.5063C8.64618 3.6963 8.60618 3.8033 8.53018 3.8283C8.40418 3.8703 8.31618 3.8683 8.26218 3.8233C8.20818 3.7783 8.21518 3.6983 8.28018 3.5853C8.34018 3.4373 8.32718 3.2653 8.24418 3.0683C8.16118 2.8723 8.00918 2.7823 7.78818 2.8003C7.64018 2.8063 7.53218 2.8863 7.46818 3.0423C7.40118 3.1963 7.37818 3.3483 7.39518 3.4963C7.41218 3.6463 7.44518 3.7233 7.49218 3.7283C7.52818 3.7343 7.63418 3.7823 7.80918 3.8723C7.98518 3.9623 8.11718 4.0143 8.20518 4.0323C8.43718 4.0793 8.56918 4.1543 8.60218 4.2553C8.63518 4.3553 8.62218 4.5033 8.56218 4.6983C8.50218 4.8923 8.48518 5.0503 8.50718 5.1763C8.53218 5.3063 8.57718 5.4263 8.64118 5.5343C8.70718 5.6413 8.77718 5.7393 8.85118 5.8283C8.92518 5.9183 9.01118 6.0843 9.11318 6.3283C9.21318 6.5703 9.30618 6.8783 9.38918 7.2463L9.45618 7.3083C9.49618 7.3443 9.53418 7.3883 9.57318 7.4423C9.61318 7.4963 9.65818 7.5683 9.71318 7.6623C9.76618 7.7543 9.82318 7.8883 9.88618 8.0683C9.94818 8.2453 10.0062 8.4513 10.0612 8.6833C10.1262 8.9583 10.1612 9.2773 10.1642 9.6393C10.1672 10.0023 10.1902 10.2513 10.2362 10.3853C10.2802 10.5193 10.3962 10.5753 10.5802 10.5503C10.8122 10.5403 10.9602 10.4133 11.0262 10.1753C11.2222 9.4853 11.0622 8.6553 10.5442 7.6933C10.3482 7.3173 10.1792 7.0713 10.0342 6.9533C10.2442 7.0713 10.4582 7.2953 10.6782 7.6213C10.8982 7.9493 11.0382 8.2553 11.0982 8.5413L11.1482 8.7773C11.1732 8.9043 11.1882 8.9803 11.1912 9.0013L11.2272 9.1843C11.2492 9.2863 11.2592 9.3513 11.2592 9.3813C11.2592 9.4113 11.2622 9.4693 11.2692 9.5553C11.2752 9.6433 11.2732 9.7103 11.2642 9.7573C11.2542 9.8043 11.2462 9.8673 11.2382 9.9503C11.2282 10.0303 11.2142 10.1083 11.1942 10.1823L11.1282 10.4263C11.4542 10.5713 11.6182 10.6963 11.6182 10.8033C11.4982 10.7033 11.3182 10.6363 11.0852 10.6033C10.8532 10.5713 10.6382 10.6033 10.4392 10.6973C10.2392 10.7933 10.1392 10.9513 10.1312 11.1713C9.91718 11.1713 9.76518 11.2253 9.67518 11.3313C9.54518 11.4863 9.47518 11.6953 9.47018 11.9613C9.46418 12.2263 9.48718 12.5153 9.53818 12.8273C9.58818 13.1403 9.60818 13.3573 9.59618 13.4833L9.59518 13.4863ZM5.85318 3.1383C5.83518 3.1323 5.82118 3.1143 5.80918 3.0843C5.80918 3.0313 5.83518 3.0093 5.88918 3.0223C5.92518 3.0343 5.95918 3.0803 5.99218 3.1563C6.02518 3.2333 6.03218 3.3233 6.01518 3.4243C6.01518 3.4423 6.00718 3.4503 5.98918 3.4503C5.92418 3.4503 5.89918 3.3903 5.91718 3.2723C5.93518 3.1823 5.91418 3.1383 5.85318 3.1383ZM8.16718 3.2823L8.14918 3.3083C8.10218 3.3383 8.07718 3.3443 8.07718 3.3263C8.05318 3.1663 8.00018 3.0733 7.91718 3.0493L7.88118 3.0293C7.83918 2.9943 7.86118 2.9723 7.94318 2.9693C7.96118 2.9613 7.98718 2.9713 8.02318 2.9943C8.05918 3.0183 8.09318 3.0543 8.12118 3.1043C8.15118 3.1573 8.16718 3.2143 8.16718 3.2813V3.2823Z" fill="white"/>
</svg>
