<svg width="19" height="18" viewBox="0 0 19 18" fill="none" xmlns="http://www.w3.org/2000/svg">
<path d="M15.084 8.25C15.456 8.25 15.8 8.368 16.084 8.567V6.25C16.084 5.146 15.189 4.25 14.084 4.25H11.767C11.965 3.966 12.084 3.623 12.084 3.25C12.084 2.283 11.3 1.5 10.334 1.5C9.36798 1.5 8.58398 2.283 8.58398 3.25C8.58398 3.623 8.70198 3.966 8.90098 4.25H6.58398C5.47898 4.25 4.58398 5.146 4.58398 6.25V8.567C4.29998 8.369 3.95598 8.25 3.58398 8.25C2.61798 8.25 1.83398 9.033 1.83398 10C1.83398 10.967 2.61798 11.75 3.58398 11.75C3.95598 11.75 4.29998 11.632 4.58398 11.433V13.75C4.58398 14.854 5.47898 15.75 6.58398 15.75H8.90098C8.70298 15.466 8.58398 15.123 8.58398 14.75C8.58398 13.783 9.36798 13 10.334 13C11.3 13 12.084 13.783 12.084 14.75C12.084 15.123 11.966 15.466 11.767 15.75H14.084C15.189 15.75 16.084 14.854 16.084 13.75V11.433C15.8 11.631 15.456 11.75 15.084 11.75C14.118 11.75 13.334 10.967 13.334 10C13.334 9.033 14.118 8.25 15.084 8.25Z" stroke="#F77047" stroke-width="1.5" stroke-linecap="round" stroke-linejoin="round"/>
</svg>
